<?xml version="1.0" standalone="no"?>
<!DOCTYPE svg PUBLIC "-//W3C//DTD SVG 20010904//EN"
 "http://www.w3.org/TR/2001/REC-SVG-20010904/DTD/svg10.dtd">
<svg version="1.0" xmlns="http://www.w3.org/2000/svg"
 width="640.000000pt" height="640.000000pt" viewBox="0 0 640.000000 640.000000"
 preserveAspectRatio="xMidYMid meet">

<g transform="translate(0.000000,640.000000) scale(0.100000,-0.100000)"
fill="#000000" stroke="none">
<path d="M983 5193 c-31 -6 -70 -48 -77 -84 -11 -55 -7 -3467 4 -3543 6 -38
20 -90 33 -115 34 -69 124 -155 190 -179 54 -21 73 -21 1948 -29 1042 -4 1999
-8 2126 -8 l233 0 27 28 28 27 3 1311 c2 1181 1 1314 -14 1344 -8 18 -23 37
-32 41 -9 5 -64 11 -122 14 l-105 5 -2 280 c-2 197 -7 287 -15 303 -28 53 -4
52 -875 52 l-807 0 -276 274 c-222 221 -281 274 -309 280 -36 7 -1922 6 -1958
-1z m2162 -472 c148 -149 283 -275 298 -280 19 -8 280 -11 798 -11 l769 0 0
-210 0 -210 -1756 -2 -1756 -3 -29 -33 -29 -32 0 -1175 c0 -1293 4 -1213 -63
-1272 -43 -38 -95 -50 -147 -34 -41 12 -97 68 -104 104 -3 12 -7 788 -9 1725
l-5 1702 881 0 882 0 270 -269z m2145 -2102 l0 -1181 -1567 6 c-863 4 -1686 9
-1831 12 l-264 6 7 27 c21 82 25 244 25 1229 l0 1082 1815 0 1815 0 0 -1181z"/>
<path d="M3495 3435 c-55 -27 -55 -26 -55 -405 0 -192 -4 -350 -7 -350 -4 0
-66 59 -138 130 -127 126 -133 130 -174 130 -60 0 -101 -41 -101 -101 0 -43 2
-45 232 -276 241 -242 260 -256 320 -238 25 8 413 387 459 449 38 52 38 94 0
135 -25 26 -36 31 -77 31 l-48 0 -126 -130 c-69 -71 -129 -130 -133 -130 -4 0
-7 156 -7 348 0 385 1 380 -66 408 -41 17 -42 17 -79 -1z"/>
<path d="M2618 2191 l-33 -29 -3 -144 c-4 -171 6 -210 62 -233 55 -23 1743
-22 1791 0 49 24 55 48 55 221 l0 156 -29 29 c-49 49 -128 35 -160 -28 -6 -12
-11 -58 -11 -102 l0 -81 -749 0 -749 0 -4 91 c-3 88 -4 92 -36 120 -44 39 -90
39 -134 0z"/>
</g>
</svg>
